Patient4_TMGait_0pt4_03_left_19_GRF.mot
version=1
nRows=65
nColumns=19
inDegrees=no
endheader
time	F1x	F1y	F1z	M1x	M1y	M1z	F2x	F2y	F2z	M2x	M2y	M2z	EC1x	EC1y	EC1z	EC2x	EC2y	EC2z
24.81	-9.3741	9.1402	-0.40131	-2.6801	-1.8664	6.8192	-36.0852	763.8041	-74.0869	295.3023	91.8558	838.2571	-0.0592	0.0182	-0.0073	-0.0462	0.0165	0.9585
24.8233	-6.3996	6.4739	-0.19414	-1.8995	-1.4387	5.0275	-31.6304	752.71	-69.6456	290.0997	86.6207	826.9256	-0.0592	0.0182	-0.0073	-0.0462	0.0165	0.9585
24.8366	-3.9137	4.2493	-0.0054849	-1.2479	-1.0871	3.532	-27.329	741.0853	-65.5787	284.7654	81.5609	814.1228	-0.0592	0.0182	-0.0073	-0.0462	0.0165	0.9585
24.8499	-2.0484	2.5835	0.15347	-0.75904	-0.83288	2.4179	-23.3718	730.212	-62.2212	279.8429	77.0414	801.1856	-0.0592	0.0182	-0.0073	-0.0462	0.0165	0.9585
24.8631	-0.78547	1.4546	0.26686	-0.43016	-0.66318	1.6765	-19.7988	721.3298	-59.7179	275.8185	73.2477	789.539	-0.0592	0.0182	-0.0073	-0.0462	0.0165	0.9585
24.8764	-0.036405	0.77841	0.34966	-0.23708	-0.57872	1.2481	-16.5657	715.454	-58.0615	273.0683	70.2145	780.4171	-0.0592	0.0182	-0.0073	-0.0462	0.0165	0.9585
24.8897	0.31997	0.43344	0.4068	-0.14385	-0.56073	1.0286	-13.5907	713.225	-57.1835	271.8096	67.9104	774.6522	-0.0592	0.0182	-0.0073	-0.0462	0.0165	0.9585
24.903	0.38741	0.27998	0.45346	-0.10789	-0.60173	0.91305	-10.764	714.8003	-56.9552	272.0711	66.23	772.5397	-0.0592	0.0182	-0.0073	-0.0462	0.0165	0.9585
24.9163	0.27022	0.19104	0.4946	-0.089845	-0.68453	0.79528	-7.9902	719.8469	-57.2427	273.6948	65.0474	773.837	-0.0592	0.0182	-0.0073	-0.0462	0.0165	0.9585
24.9296	0.043056	0.058679	0.5411	-0.052838	-0.80386	0.58523	-5.1872	727.6194	-57.8884	276.3704	64.2024	777.8326	-0.0592	0.0182	-0.0073	-0.0462	0.0165	0.9585
24.9429	-0.23734	-0.21274	0.59218	0.037041	-0.94519	0.18589	-2.302	737.1001	-58.7546	279.6844	63.5531	783.5144	-0.0592	0.0182	-0.0073	-0.0462	0.0165	0.9585
24.9561	-0.52826	-0.70073	0.64926	0.20728	-1.0943	-0.47763	0.66372	747.1242	-59.7082	283.1726	62.9714	789.7114	-0.0592	0.0182	-0.0073	-0.0462	0.0165	0.9585
24.9694	-0.78772	-1.4509	0.70016	0.47396	-1.2211	-1.4442	3.6617	756.5434	-60.6539	286.3863	62.3788	795.2848	-0.0592	0.0182	-0.0073	-0.0462	0.0165	0.9585
24.9827	-0.94843	-2.4725	0.72824	0.83995	-1.2852	-2.7197	6.6104	764.4077	-61.5054	288.9604	61.7219	799.3194	-0.0592	0.0182	-0.0073	-0.0462	0.0165	0.9585
24.996	-0.94018	-3.6954	0.70067	1.2819	-1.2272	-4.2181	9.4013	770.036	-62.2087	290.6415	60.9936	801.1906	-0.0592	0.0182	-0.0073	-0.0462	0.0165	0.9585
25.0093	-0.65509	-4.9362	0.58238	1.7339	-0.96802	-5.7287	11.9113	773.0283	-62.7322	291.292	60.2164	800.567	-0.0592	0.0182	-0.0073	-0.0462	0.0165	0.9585
25.0226	0.033631	-5.8713	0.32495	2.0772	-0.40334	-6.8685	14.0503	773.3237	-63.087	290.9047	59.4383	797.4474	-0.0592	0.0182	-0.0073	-0.0462	0.0165	0.9585
25.0359	1.2641	-5.9857	-0.11395	2.1209	0.56858	-7.0192	15.7956	771.228	-63.3157	289.6087	58.71	792.1775	-0.0592	0.0182	-0.0073	-0.0462	0.0165	0.9585
25.0491	3.1598	-4.538	-0.76841	1.5935	2.0336	-5.2876	17.1812	767.3234	-63.4958	287.6356	58.0924	785.3576	-0.0592	0.0182	-0.0073	-0.0462	0.0165	0.9585
25.0624	5.7823	-0.55792	-1.6497	0.1441	4.0241	-0.49514	18.305	762.3018	-63.7104	285.2548	57.6333	777.6647	-0.0592	0.0182	-0.0073	-0.0462	0.0165	0.9585
25.0757	9.0644	7.0954	-2.7284	-2.6369	6.4741	8.7344	19.2939	756.7481	-64.0248	282.693	57.3574	769.6566	-0.0592	0.0182	-0.0073	-0.0462	0.0165	0.9585
25.089	12.7001	19.5943	-3.8916	-7.1665	9.1323	23.8193	20.2595	750.8867	-64.4441	280.0441	57.2366	761.5313	-0.0592	0.0182	-0.0073	-0.0462	0.0165	0.9585
25.1023	16.0566	37.8499	-4.9256	-13.7684	11.5111	45.8673	21.2792	744.4377	-64.8921	277.2165	57.1672	752.9956	-0.0592	0.0182	-0.0073	-0.0462	0.0165	0.9585
25.1156	18.1593	62.1912	-5.5377	-22.5547	12.9128	75.301	22.3896	736.6104	-65.1996	273.928	56.9702	743.2707	-0.0592	0.0182	-0.0073	-0.0462	0.0165	0.9585
25.1289	18.0079	92.1468	-5.3643	-33.3401	12.5467	111.5686	23.5598	726.195	-65.1284	269.7408	56.4234	731.178	-0.0592	0.0182	-0.0073	-0.0462	0.0165	0.9585
25.1421	15.0255	126.0729	-3.9401	-45.5105	9.664	152.6645	24.7023	711.7738	-64.4096	264.1397	55.2963	715.345	-0.0592	0.0182	-0.0073	-0.0462	0.0165	0.9585
25.1554	9.7635	161.1318	-0.80541	-58.0275	3.9558	195.0725	25.7317	692.0228	-62.8202	256.6423	53.4072	694.4839	-0.0592	0.0182	-0.0073	-0.0462	0.0165	0.9585
25.1687	3.6288	194.8354	4.0146	-70.0026	-4.0028	235.5668	26.5809	666.0593	-60.2342	246.9249	50.6601	667.7199	-0.0592	0.0182	-0.0073	-0.0462	0.0165	0.9585
25.182	-2.3425	226.6245	9.9032	-81.2807	-13.0735	273.217	27.2159	633.6447	-56.6981	234.892	47.1031	634.7817	-0.0592	0.0182	-0.0073	-0.0462	0.0165	0.9585
25.1953	-7.7246	258.3441	16.0862	-92.5713	-22.1775	310.1038	27.6479	595.0843	-52.4024	220.6405	42.903	595.905	-0.0592	0.0182	-0.0073	-0.0462	0.0165	0.9585
25.2086	-12.3894	292.708	21.9808	-104.8864	-30.5796	349.4318	27.8431	550.9338	-47.5739	204.3589	38.2718	551.5785	-0.0592	0.0182	-0.0073	-0.0462	0.0165	0.9585
25.2219	-16.2869	331.6649	27.1741	-118.9456	-37.792	393.54	27.6632	501.7717	-42.3911	186.245	33.4085	502.3357	-0.0592	0.0182	-0.0073	-0.0462	0.0165	0.9585
25.2351	-19.2941	375.7025	31.5288	-134.9211	-43.6239	442.9749	26.8969	448.1997	-36.9647	166.5035	28.4747	448.7555	-0.0592	0.0182	-0.0073	-0.0462	0.0165	0.9585
25.2484	-21.3237	424.072	35.1005	-152.5177	-48.1319	496.829	25.2971	391.0402	-31.4049	145.417	23.6449	391.655	-0.0592	0.0182	-0.0073	-0.0462	0.0165	0.9585
25.2617	-22.3567	475.3274	38.1606	-171.1717	-51.6415	553.4199	22.6658	331.5335	-25.8722	123.4262	19.1312	332.2591	-0.0592	0.0182	-0.0073	-0.0462	0.0165	0.9585
25.275	-22.4575	527.8653	41.058	-190.254	-54.6008	610.9147	18.9408	271.5234	-20.5977	101.1984	15.1766	272.3981	-0.0592	0.0182	-0.0073	-0.0462	0.0165	0.9585
25.2883	-21.8324	580.1653	44.1321	-209.1656	-57.4863	667.6227	14.3035	213.3893	-15.8301	79.6107	11.9736	214.4146	-0.0592	0.0182	-0.0073	-0.0462	0.0165	0.9585
25.3016	-20.7601	630.773	47.5535	-227.3517	-60.6066	721.933	9.1781	159.7781	-11.7544	59.6528	9.5777	160.9259	-0.0592	0.0182	-0.0073	-0.0462	0.0165	0.9585
25.3149	-19.5651	678.2546	51.2915	-244.286	-64.046	772.3176	4.2135	113.0711	-8.4406	42.2265	7.8544	114.2786	-0.0592	0.0182	-0.0073	-0.0462	0.0165	0.9585
25.3281	-18.4338	721.1172	55.0894	-259.4502	-67.5854	817.1666	0.094733	74.7556	-5.8506	27.9081	6.546	75.9254	-0.0592	0.0182	-0.0073	-0.0462	0.0165	0.9585
25.3414	-17.4139	757.889	58.5795	-272.3524	-70.8223	854.896	-2.7652	45.1656	-3.8751	16.8429	5.4158	46.204	-0.0592	0.0182	-0.0073	-0.0462	0.0165	0.9585
25.3547	-16.4302	787.2178	61.3689	-282.5553	-73.2884	884.0434	-4.2863	23.712	-2.3884	8.8244	4.325	24.5458	-0.0592	0.0182	-0.0073	-0.0462	0.0165	0.9585
25.368	-15.3588	807.9831	63.1913	-289.7062	-74.6378	903.4062	-4.6528	9.2834	-1.3023	3.4374	3.2574	9.8903	-0.0592	0.0182	-0.0073	-0.0462	0.0165	0.9585
25.3813	-14.0958	819.5278	63.9048	-293.6134	-74.672	912.32	-4.2177	0.52268	-0.55143	0.17173	2.274	0.91457	-0.0592	0.0182	-0.0073	-0.0462	0.0165	0.9585
25.3946	-12.5452	821.8982	63.5201	-294.3241	-73.3714	910.9091	-3.4086	-3.9783	-0.084036	-1.5037	1.4674	-3.7605	-0.0592	0.0182	-0.0073	-0.0462	0.0165	0.9585
25.4079	-10.6694	815.9913	62.1461	-292.1693	-70.8535	900.2726	-2.5125	-5.554	0.16537	-2.0897	0.86898	-5.4582	-0.0592	0.0182	-0.0073	-0.0462	0.0165	0.9585
25.4211	-8.4787	803.4704	59.9722	-287.7344	-67.3423	882.3436	-1.6849	-5.3354	0.25897	-2.0082	0.46635	-5.3181	-0.0592	0.0182	-0.0073	-0.0462	0.0165	0.9585
25.4344	-6.0596	786.5073	57.2372	-281.7724	-63.1415	859.611	-1.0237	-4.1837	0.25333	-1.5796	0.22923	-4.2084	-0.0592	0.0182	-0.0073	-0.0462	0.0165	0.9585
25.4477	-3.5577	767.4587	54.2117	-275.0911	-58.6103	834.754	-0.53638	-2.6913	0.19309	-1.0245	0.11097	-2.7414	-0.0592	0.0182	-0.0073	-0.0462	0.0165	0.9585
25.461	-1.1223	748.6048	51.1671	-268.462	-54.1092	810.3237	-0.21233	-1.2125	0.11044	-0.47639	0.072017	-1.2666	-0.0592	0.0182	-0.0073	-0.0462	0.0165	0.9585
25.4743	1.0957	731.9379	48.3606	-262.5502	-49.9774	788.5338	-0.022555	0.043845	0.026065	-0.010034	0.080807	0.0076274	-0.0592	0.0182	-0.0073	-0.0462	0.0165	0.9585
25.4876	2.9635	718.9752	46.0073	-257.856	-46.4973	771.0583	0.065075	0.99826	-0.046089	0.34635	0.11119	0.99575	-0.0592	0.0182	-0.0073	-0.0462	0.0165	0.9585
25.5009	4.3768	710.6772	44.2499	-254.6883	-43.8569	758.947	0.084071	1.6662	-0.10077	0.59814	0.14587	1.7115	-0.0592	0.0182	-0.0073	-0.0462	0.0165	0.9585
25.5141	5.2961	707.4361	43.1384	-253.1659	-42.1204	752.6109	0.070417	2.088	-0.13887	0.7622	0.17587	2.1834	-0.0592	0.0182	-0.0073	-0.0462	0.0165	0.9585
25.5274	5.7419	709.1303	42.6403	-253.2397	-41.2412	751.8797	0.028418	2.3275	-0.16101	0.86206	0.20124	2.4713	-0.0592	0.0182	-0.0073	-0.0462	0.0165	0.9585
25.5407	5.7888	715.197	42.6639	-254.7174	-41.0887	756.0859	-0.015484	2.4501	-0.17828	0.92031	0.22777	2.6344	-0.0592	0.0182	-0.0073	-0.0462	0.0165	0.9585
25.554	5.5765	724.7395	43.0928	-257.2993	-41.4827	764.1873	-0.062085	2.5071	-0.19616	0.95363	0.26107	2.7283	-0.0592	0.0182	-0.0073	-0.0462	0.0165	0.9585
25.5673	5.2735	736.623	43.8113	-260.6071	-42.2322	774.8839	-0.12304	2.5127	-0.21923	0.96715	0.30553	2.7642	-0.0592	0.0182	-0.0073	-0.0462	0.0165	0.9585
25.5806	5.0658	749.5704	44.7178	-264.2177	-43.1611	786.7144	-0.19607	2.4755	-0.24654	0.96294	0.35814	2.7477	-0.0592	0.0182	-0.0073	-0.0462	0.0165	0.9585
25.5939	5.1382	762.3165	45.7402	-267.7174	-44.128	798.2342	-0.28748	2.3906	-0.2821	0.93696	0.42325	2.6718	-0.0592	0.0182	-0.0073	-0.0462	0.0165	0.9585
25.6071	5.626	773.7566	46.822	-270.749	-45.0271	808.2063	-0.39869	2.2044	-0.32428	0.87008	0.50242	2.4689	-0.0592	0.0182	-0.0073	-0.0462	0.0165	0.9585
25.6204	6.6015	783.0107	47.9342	-273.0285	-45.7991	815.6821	-0.53873	1.8665	-0.37964	0.74162	0.60997	2.0842	-0.0592	0.0182	-0.0073	-0.0462	0.0165	0.9585
25.6337	8.0675	789.4965	49.0485	-274.3681	-46.4041	820.0743	-0.68682	1.3181	-0.44933	0.52812	0.74452	1.4387	-0.0592	0.0182	-0.0073	-0.0462	0.0165	0.9585
25.647	9.9681	792.9667	50.1218	-274.6871	-46.8084	821.178	-0.83425	0.48772	-0.53342	0.20308	0.89996	0.45078	-0.0592	0.0182	-0.0073	-0.0462	0.0165	0.9585
25.6603	12.2035	793.4563	51.0968	-273.9946	-46.9809	819.103	-0.94812	-0.66989	-0.61884	-0.25038	1.0451	-0.92947	-0.0592	0.0182	-0.0073	-0.0462	0.0165	0.9585
